<mxfile host="app.diagrams.net" modified="2023-05-24T07:43:04.164Z" agent="Mozilla/5.0 (Macintosh; Intel Mac OS X 10_15_7) AppleWebKit/605.1.15 (KHTML, like Gecko) Version/16.2 Safari/605.1.15" version="21.3.3" etag="KhjxZirIhBww8ICDXJZm" type="github">
  <diagram name="第 1 页" id="3sfTKPungFzAuO5R9FBC">
    <mxGraphModel>
      <root>
        <mxCell id="0" />
        <mxCell id="1" parent="0" />
      </root>
    </mxGraphModel>
  </diagram>
</mxfile>
